<?xml version="1.0" encoding="UTF-8"?>
<svg id="Layer_1" data-name="Layer 1" xmlns="http://www.w3.org/2000/svg" viewBox="0 0 1900 357.26">
  <defs>
    <style>
      .cls-1 {
        fill: #fff;
      }
    </style>
  </defs>
  <g>
    <path class="cls-1" d="M143.51,33.89c27.07,0,38.29-1.15,49.9-3.48l-14.31,53.77h-8.9c3.48-27.46-.78-38.68-17.41-38.68h-37.13v196.11c0,17.79,8.12,21.66,34.81,23.59v8.9c-36.36-1.16-70.39-1.16-106.76,0v-8.9c26.69-1.93,34.81-5.8,34.81-23.59V45.49h-28.62c-19.73,0-25.53,6.96-41,38.68H0L14.31,30.4c11.6,2.33,23.2,3.48,48.73,3.48h80.46Z"/>
    <path class="cls-1" d="M203.48,265.19c12.38-1.54,22.82-5.41,22.82-22.82v-122.61c0-13.15-8.12-16.24-23.21-15.09v-8.51c21.66-3.47,39.46-11.6,52.22-20.11,3.87,1.54,6.19,3.86,7.73,7.73l-9.28,42.93h2.32c9.66-33.27,25.91-49.9,50.29-49.9,19.72,0,32.49,11.61,32.49,25.92,0,10.83-6.97,18.95-17.41,18.95-16.63,0-19.73-20.12-34.42-20.12-17.8,0-25.53,27.46-25.53,47.97v92.83c0,17.41,13.15,21.28,26.3,22.82v8.9c-28.62-1.16-57.63-1.16-84.32,0v-8.9Z"/>
    <path class="cls-1" d="M634.79,178.93c0,67.31-35.97,99.41-81.61,99.41-24.37,0-41.78-8.9-52.22-21.66v44.1c0,22.82,6.57,27.85,26.69,29.39v8.51c-25.53,3.48-42.16,8.12-61.51,18.57-3.47-1.55-5.8-3.87-7.35-7.36,3.48-5.03,6.96-13.54,6.96-37.13V119.76c0-13.15-8.12-16.24-23.2-15.09v-8.51c21.66-3.47,39.84-11.21,52.61-20.11,3.86,1.54,6.19,3.86,7.73,7.73-1.16,6.58-1.54,15.47-1.93,26.3,10.44-20.11,31.32-33.27,55.69-33.27,40.23,0,78.14,33.65,78.14,102.12ZM596.89,187.44c0-52.98-18.19-97.08-52.61-97.08-29.39,0-43.32,30.94-43.32,50.67v84.32c0,16.26,15.86,41.78,45.64,41.78,26.31,0,50.29-19.34,50.29-79.68Z"/>
    <path class="cls-1" d="M650.28,265.19c12.77-1.54,23.6-5.41,23.6-22.82V58.64c0-20.12-8.12-28.24-22.44-28.24v-8.51c20.49-2.71,37.13-10.44,52.22-20.11,3.86,1.54,6.19,3.86,7.73,7.73-2.32,10.44-2.32,25.14-2.32,49.12v183.73c0,17.41,10.83,21.28,23.59,22.82v8.9c-27.07-1.55-55.31-1.55-82.39,0v-8.9Z"/>
    <path class="cls-1" d="M895.53,237.34h10.44c-10.05,24.76-37.13,41-70.01,41-50.29,0-87.8-35.97-87.8-100.18s34.03-101.35,84.32-101.35c39.85,0,74.65,22.82,74.65,69.63,0,15.86-4.64,26.31-18.18,26.31h-102.12c2.32,54.93,23.59,93.22,63.05,93.22,16.63,0,35.97-6.97,45.64-28.63ZM786.84,163.08h83.54c3.87-46.8-11.22-76.97-41.39-76.97-28.62,0-42.15,27.46-42.15,76.97Z"/>
    <path class="cls-1" d="M1003.86,265.19c20.51-1.54,27.09-5.41,27.09-23.59V69.86c0-16.63-5.41-25.14-26.31-27.46v-8.51c33.27,1.55,68.85,0,87.04,0,82.77,0,104.05,34.04,104.05,69.24,0,46.42-37.14,76.97-127.65,76.97v61.51c0,18.18,6.58,22.05,26.69,23.59v8.9c-29.78-1.16-60.72-1.16-90.9,0v-8.9ZM1068.07,170.05c64.6,0,90.12-26.7,90.12-66.53,0-35.2-18.95-59.57-64.2-59.57-10.06,0-20.51,1.16-25.92,3.87v122.23Z"/>
    <path class="cls-1" d="M1213.14,177c0-66.92,42.54-100.19,87.03-100.19s88.58,35.21,88.58,100.96-42.55,100.56-87.03,100.56-88.58-35.2-88.58-101.34ZM1350.84,187.83c0-58.41-22.44-100.95-55.7-100.95-25.53,0-44.1,25.91-44.1,80.07,0,58.02,22.44,101.34,55.7,101.34,25.91,0,44.1-26.31,44.1-80.46Z"/>
    <path class="cls-1" d="M1404.25,265.84c12.77-1.43,23.6-5.02,23.6-21.17v-101.55c0-18.66-8.12-26.2-22.44-26.2v-7.9c20.49-2.51,37.13-9.69,52.22-18.65,3.86,1.43,6.19,3.58,7.73,7.18-2.32,9.69-2.32,23.33-2.32,45.57v101.55c0,16.15,10.83,19.74,23.59,21.17v8.26c-27.07-1.44-55.31-1.44-82.39,0v-8.26Z"/>
    <path class="cls-1" d="M1496.7,265.19c12.76-1.54,22.81-5.41,22.81-22.82v-122.61c0-13.15-8.12-16.24-23.2-15.09v-8.51c21.66-3.47,39.07-11.21,51.83-20.11,3.48,1.54,6.19,3.86,7.73,7.73l-7.35,39.46h1.54c3.87-13.16,20.12-46.43,63.05-46.43,26.31,0,58.8,12.77,58.8,65.38v100.18c0,17.41,10.44,21.28,22.82,22.82v8.9c-26.7-1.16-53.77-1.16-80.46,0v-8.9c12.37-1.54,22.44-5.41,22.44-22.82v-99.41c0-28.23-15.86-46.42-40.61-46.42s-41.39,21.28-41.39,46.42v99.41c0,17.41,10.44,21.28,22.81,22.82v8.9c-26.69-1.16-53.76-1.16-80.84,0v-8.9Z"/>
    <path class="cls-1" d="M1727.65,230.77V97.32h-25.14v-7.73c25.14-6.58,41-26.69,47.96-55.7h12.77v51.06h44.48v12.37h-44.48v136.93c0,13.54,7.35,26.31,24.37,26.31,10.05,0,16.24-4.65,20.49-8.12v9.66c-7.35,10.05-22.04,14.7-35.59,14.7-22.81,0-44.86-13.15-44.86-46.03Z"/>
    <path class="cls-1" d="M353.04,265.84c12.77-1.43,23.6-5.02,23.6-21.17v-101.55c0-18.66-8.12-26.2-22.44-26.2v-7.9c20.49-2.51,37.13-9.69,52.22-18.65,3.86,1.43,6.19,3.58,7.73,7.18-2.32,9.69-2.32,23.33-2.32,45.57v101.55c0,16.15,10.83,19.74,23.59,21.17v8.26c-27.07-1.44-55.31-1.44-82.39,0v-8.26Z"/>
  </g>
  <path class="cls-1" d="M390.77,61.21c16.9,0,30.61-13.7,30.61-30.61S407.68,0,390.77,0s-30.61,13.7-30.61,30.6,13.7,30.61,30.61,30.61"/>
  <path class="cls-1" d="M1445.44,61.21c16.9,0,30.61-13.7,30.61-30.61s-13.7-30.6-30.61-30.6-30.61,13.7-30.61,30.6,13.7,30.61,30.61,30.61"/>
  <path class="cls-1" d="M1869.39,277.87c16.9,0,30.61-13.7,30.61-30.61s-13.7-30.6-30.61-30.6-30.61,13.7-30.61,30.6,13.7,30.61,30.61,30.61"/>
</svg>