<svg width="95" height="26" viewBox="0 0 95 26" fill="none" xmlns="http://www.w3.org/2000/svg">
<path d="M81.6316 0.5C78.0798 0.5 74.8249 1.71296 72.4661 3.91514C71.1306 5.16108 70.1379 6.65314 69.5102 8.33716C69.3724 8.70694 68.826 8.60919 68.826 8.21468V2.58441C68.826 1.65054 68.0699 0.894519 67.1361 0.894519H59.3684C58.789 0.894519 58.3191 1.36438 58.3191 1.94378V5.40483C58.3191 5.98423 58.789 6.45412 59.3684 6.45412H60.6509C61.2302 6.45412 61.7001 6.92399 61.7001 7.50339V14.8377C61.7001 16.3286 61.083 18.8287 56.9543 18.8287H55.9015C55.4799 18.8287 55.1984 18.4012 55.3597 18.0114C55.9898 16.4864 56.3136 14.7918 56.3136 12.9653C56.3136 5.74284 50.8365 0.501179 43.2913 0.501179C39.7396 0.501179 36.4846 1.71414 34.1246 3.91632C32.7162 5.23056 31.7152 6.82742 31.0675 8.61625C30.8355 9.2557 30.6801 9.95051 30.5776 10.6218C30.5164 11.0222 29.9417 11.0245 29.8793 10.6241L28.5945 2.32769C28.4673 1.50452 27.7584 0.896848 26.9246 0.896848H22.1705C21.4568 0.896848 20.8209 1.34435 20.5795 2.0156L17.142 11.5862C16.7298 12.7333 15.1082 12.7333 14.696 11.5862L11.2585 2.0156C11.0171 1.34435 10.3812 0.896848 9.66871 0.896848H4.9146C4.08084 0.896848 3.3719 1.50452 3.24472 2.32769L0.0203549 23.1541C-0.138626 24.1787 0.653922 25.1031 1.69024 25.1031H5.38095C6.21471 25.1031 6.92365 24.4955 7.05083 23.6723L8.3215 15.4854C8.52876 14.1476 10.3882 13.9792 10.8334 15.2581L13.8611 23.9679C14.0978 24.6474 14.7384 25.1031 15.4568 25.1031H16.4001C17.1114 25.1031 17.7473 24.658 17.9887 23.9891L21.0564 15.5196C21.5145 14.2548 23.3564 14.4338 23.5624 15.7633L24.7895 23.6735C24.9167 24.4967 25.6257 25.1043 26.4594 25.1043H30.1501C31.1864 25.1043 31.979 24.1799 31.82 23.1553L31.25 19.4764C31.19 19.0854 31.7164 18.9076 31.9095 19.2538C32.5172 20.3455 33.3015 21.3312 34.253 22.1908C36.6142 24.3235 39.8244 25.4988 43.2925 25.4988C46.7607 25.4988 50.0521 24.3153 52.4298 22.1673C52.7242 21.9011 53.0021 21.6232 53.2647 21.3347C53.6251 20.9367 54.2869 21.1946 54.2869 21.7316V23.4156C54.2869 24.3495 55.043 25.1055 55.9768 25.1055H57.4477C60.7109 25.1055 63.4477 24.3565 65.3614 22.941C67.1808 21.595 68.2902 19.6366 68.6753 17.1023C68.7306 16.736 69.2393 16.6878 69.3583 17.0387C69.8741 18.5661 70.8456 20.6411 72.5956 22.192C74.9768 24.3023 78.167 25.5 81.6351 25.5C85.1032 25.5 88.3947 24.3165 90.7724 22.1685C93.3137 19.8709 94.6574 16.6913 94.6574 12.9711C94.6574 5.7487 89.1802 0.507073 81.6351 0.507073L81.6316 0.5ZM43.322 18.6308C40.153 18.6308 37.853 16.2473 37.853 12.9653C37.853 9.6832 40.2036 7.39741 43.322 7.39741C46.4403 7.39741 48.8239 9.79154 48.8239 12.9653C48.8239 16.139 46.458 18.6308 43.322 18.6308ZM81.6646 18.6308C78.4955 18.6308 76.1956 16.2473 76.1956 12.9653C76.1956 9.6832 78.5462 7.39741 81.6646 7.39741C84.7829 7.39741 87.1665 9.79154 87.1665 12.9653C87.1665 16.139 84.8006 18.6308 81.6646 18.6308Z" fill="#FFFFFF"/>
</svg>
